<?xml version="1.0" encoding="utf-8"?>
<!-- Generator: Adobe Illustrator 16.0.0, SVG Export Plug-In . SVG Version: 6.00 Build 0)  -->
<!DOCTYPE svg PUBLIC "-//W3C//DTD SVG 1.1//EN" "http://www.w3.org/Graphics/SVG/1.1/DTD/svg11.dtd">
<svg version="1.1" id="Layer_1" xmlns="http://www.w3.org/2000/svg" xmlns:xlink="http://www.w3.org/1999/xlink" x="0px" y="0px"
	 width="48px" height="48px" viewBox="0 0 48 48" enable-background="new 0 0 48 48" xml:space="preserve">
<path fill="#E9B93D" d="M10.875,21.036c-0.202-0.343-0.532-0.591-0.917-0.688l-4.11-1.055c-0.803-0.207-1.62,0.277-1.828,1.08
	c-0.206,0.804,0.277,1.62,1.081,1.827l4.109,1.054c0.804,0.207,1.621-0.276,1.827-1.079C11.137,21.788,11.078,21.379,10.875,21.036z
	"/>
<path fill="#E9B93D" d="M15.694,32.127c0.046,0.08,0.101,0.149,0.148,0.226c0.568-0.899,1.369-1.616,2.313-1.98
	c-2.35-4.246-0.918-9.615,3.284-12.1c4.165-2.458,9.491-1.175,12.111,2.836c0.83-0.724,1.825-1.074,2.842-1.119
	c-0.016-0.026-0.027-0.055-0.042-0.082c-3.374-5.702-10.734-7.591-16.438-4.219C14.215,19.069,12.326,26.423,15.694,32.127z"/>
<path fill="#E9B93D" d="M14.039,8.708l2.291,3.873c0.421,0.713,1.341,0.949,2.054,0.527c0.714-0.423,0.95-1.343,0.528-2.056
	L16.621,7.18c-0.421-0.713-1.344-0.947-2.056-0.527C13.852,7.074,13.616,7.995,14.039,8.708z"/>
<path fill="#E9B93D" d="M28.786,9.208c-0.207,0.804,0.277,1.619,1.08,1.825c0.805,0.207,1.622-0.276,1.827-1.08l1.054-4.109
	c0.206-0.804-0.276-1.62-1.08-1.826c-0.803-0.206-1.62,0.277-1.826,1.081L28.786,9.208z"/>
<path fill="#0A42D1" d="M35.063,18.952l-7.556,4.471l-0.001-0.009l-4.479,2.65l0.007,0.004l-7.559,4.471l-5.561-1.427
	c-0.803-0.207-1.621,0.276-1.827,1.081c-0.205,0.802,0.278,1.62,1.08,1.824l4.713,1.209l-1.21,4.713
	c-0.206,0.802,0.278,1.619,1.08,1.824c0.804,0.208,1.622-0.278,1.827-1.081l1.426-5.562l7.557-4.471l0.093,8.779l-3.909,3.995
	c-0.579,0.592-0.569,1.542,0.022,2.122c0.593,0.58,1.542,0.569,2.122-0.023l3.282-3.349l3.32,3.404
	c0.483,0.493,1.242,0.595,1.836,0.24c0.714-0.422,0.948-1.343,0.526-2.054c-0.062-0.105-0.136-0.201-0.22-0.287l-3.979-4.062
	l-0.094-8.799l7.676,4.316l1.644,5.44c0.24,0.795,1.077,1.243,1.87,1.005c0.794-0.24,1.242-1.077,1.003-1.871l-1.383-4.55
	l4.506-1.258c0,0,0,0,0.001-0.001c0.799-0.223,1.264-1.051,1.041-1.848c-0.037-0.127-0.088-0.248-0.156-0.362
	c-0.345-0.585-1.039-0.863-1.693-0.682l-5.384,1.505l-7.651-4.31l7.558-4.47l5.561,1.427c0.804,0.207,1.621-0.275,1.828-1.08
	c0.206-0.804-0.277-1.62-1.082-1.826l-4.711-1.209l1.209-4.712c0.207-0.803-0.276-1.619-1.079-1.824
	c-0.805-0.208-1.621,0.276-1.828,1.08L35.063,18.952z"/>
</svg>
