<?xml version="1.0" encoding="utf-8"?>
<!-- Generator: Adobe Illustrator 16.0.0, SVG Export Plug-In . SVG Version: 6.00 Build 0)  -->
<!DOCTYPE svg PUBLIC "-//W3C//DTD SVG 1.1//EN" "http://www.w3.org/Graphics/SVG/1.1/DTD/svg11.dtd">
<svg version="1.1" id="Layer_1" xmlns="http://www.w3.org/2000/svg" xmlns:xlink="http://www.w3.org/1999/xlink" x="0px" y="0px"
	 width="48px" height="48px" viewBox="0 0 48 48" enable-background="new 0 0 48 48" xml:space="preserve">
<path fill="#E9B93D" d="M22.5,7.5V3c0-0.829,0.671-1.5,1.5-1.5c0.828,0,1.5,0.671,1.5,1.5v4.5C25.5,8.328,24.828,9,24,9
	C23.171,9,22.5,8.328,22.5,7.5z M36,24c0,6.627-5.373,12-12,12c-6.628,0-12-5.373-12-12c0-6.628,5.372-12,12-12
	C30.625,12.007,35.992,17.375,36,24z M33,24c0-4.971-4.029-9-9-9s-9,4.029-9,9s4.029,9,9,9C28.969,32.994,32.994,28.969,33,24z
	 M10.938,13.061c0.586,0.586,1.536,0.586,2.122,0s0.586-1.536,0-2.123l-3-3c-0.586-0.586-1.536-0.586-2.122,0
	c-0.587,0.587-0.587,1.537,0,2.123L10.938,13.061z M10.938,34.938l-3,3c-0.587,0.588-0.587,1.537,0,2.123
	c0.586,0.586,1.536,0.586,2.122,0l3-3c0.586-0.586,0.586-1.535,0-2.123C12.475,34.352,11.524,34.352,10.938,34.938z M36,13.5
	c0.398,0,0.779-0.158,1.061-0.439l3-3c0.586-0.586,0.586-1.536,0-2.123c-0.586-0.586-1.535-0.586-2.121,0l-3,3
	c-0.588,0.586-0.588,1.536-0.002,2.122C35.219,13.342,35.602,13.5,36,13.5z M37.061,34.938c-0.586-0.586-1.535-0.586-2.121,0
	c-0.588,0.588-0.588,1.537,0,2.123l3,3c0.586,0.586,1.535,0.586,2.121,0s0.586-1.535,0-2.123L37.061,34.938z M9,24
	c0-0.829-0.672-1.5-1.5-1.5H3c-0.829,0-1.5,0.671-1.5,1.5c0,0.828,0.671,1.5,1.5,1.5h4.5C8.328,25.5,9,24.828,9,24z M24,39
	c-0.829,0-1.5,0.672-1.5,1.5V45c0,0.828,0.671,1.5,1.5,1.5c0.828,0,1.5-0.672,1.5-1.5v-4.5C25.5,39.672,24.828,39,24,39z M45,22.5
	h-4.5c-0.828,0-1.5,0.671-1.5,1.5c0,0.828,0.672,1.5,1.5,1.5H45c0.828,0,1.5-0.672,1.5-1.5C46.5,23.171,45.828,22.5,45,22.5z"/>
</svg>
